<svg width="24" height="24" viewBox="0 0 24 24" fill="none" xmlns="http://www.w3.org/2000/svg">
<path d="M17.2124 4.25161C17.2117 4.22598 17.2102 4.20049 17.2074 4.17519C17.2063 4.16544 17.2046 4.15582 17.2033 4.14608C17.2009 4.12949 17.1982 4.11297 17.1951 4.09657C17.1926 4.08379 17.19 4.07108 17.1871 4.05843C17.1836 4.04384 17.1795 4.02939 17.1753 4.01499C17.169 3.99279 17.162 3.97091 17.1541 3.94929C17.1512 3.94122 17.1482 3.93309 17.145 3.92515C17.1242 3.87184 17.0987 3.82065 17.0688 3.77186C17.0677 3.76999 17.0666 3.76812 17.0653 3.76624C16.9422 3.56726 16.7488 3.41061 16.5067 3.34013C16.0023 3.19323 15.4758 3.47019 15.3066 3.96155C15.3014 3.97665 15.2954 3.99131 15.2909 4.00692C15.1395 4.52688 15.4377 5.07285 15.9577 5.22427C16.4777 5.37568 17.022 5.07595 17.1735 4.55599C17.182 4.52727 17.1886 4.49842 17.1942 4.46957C17.1957 4.4624 17.197 4.45511 17.1984 4.44788C17.2033 4.41968 17.2073 4.39147 17.2097 4.36346C17.2101 4.35946 17.2101 4.35559 17.2104 4.35165C17.2121 4.32732 17.2129 4.30318 17.2128 4.27904C17.2128 4.26987 17.2128 4.26077 17.2124 4.25161Z" fill="#0D4047"/>
<path d="M14.7347 14.3719C14.6989 14.3664 14.6625 14.3622 14.6254 14.3622C14.5716 14.3622 14.5193 14.3686 14.4688 14.3798L14.3939 14.3049L12.6589 12.5677L12.6318 12.5406C12.798 12.217 12.8134 11.8363 12.6779 11.5026C12.6691 11.4801 12.6585 11.4583 12.6481 11.4364L12.6759 11.4086L14.4123 9.67455L14.4609 9.62595C14.6808 9.66165 14.9142 9.59626 15.0843 9.4269C15.3428 9.16841 15.3626 8.76218 15.1457 8.48013C15.1273 8.45566 15.1067 8.43159 15.0843 8.40926C14.8039 8.12798 14.3479 8.12798 14.0671 8.40881C14.0194 8.4565 13.9807 8.50885 13.949 8.56468C13.8683 8.70893 13.8412 8.87506 13.8671 9.03416L13.8195 9.08179L12.0775 10.8214L12.0539 10.845C11.7066 10.682 11.2997 10.6877 10.9573 10.864L10.9475 10.8541L9.21301 9.11736L9.1757 9.08005C9.21443 8.88616 9.17338 8.67976 9.05165 8.51349C9.03016 8.48426 9.00744 8.45553 8.98123 8.42933C8.70041 8.1485 8.24435 8.14766 7.96352 8.42849C7.92318 8.46883 7.88962 8.51265 7.8609 8.55861C7.68876 8.83647 7.72219 9.20572 7.96307 9.44659C8.14005 9.62357 8.38705 9.68914 8.61579 9.64241L8.65187 9.67849L10.3924 11.4213L10.4032 11.4321C10.2411 11.7683 10.2392 12.162 10.3967 12.4998L10.3745 12.522L8.62089 14.2732L8.56616 14.3279C8.55376 14.3266 8.54137 14.3244 8.52892 14.3238C8.33309 14.3144 8.13385 14.3831 7.98404 14.533C7.77925 14.7369 7.72381 15.0337 7.8174 15.2887C7.85173 15.384 7.90672 15.4733 7.98314 15.5498C8.26436 15.831 8.71958 15.831 9.00079 15.5507C9.18125 15.3701 9.24554 15.1179 9.1939 14.8858L9.23553 14.8441L10.9617 13.1204L10.9873 13.0948C11.3266 13.2575 11.7241 13.2576 12.0633 13.0945L12.0916 13.1228L13.8256 14.8592L13.9174 14.9509C13.9097 14.9933 13.905 15.0366 13.905 15.0813C13.905 15.1384 13.9123 15.193 13.9244 15.2458C13.9991 15.5641 14.2839 15.8015 14.6246 15.8015C14.9119 15.8015 15.1609 15.6327 15.2756 15.388C15.32 15.2956 15.3443 15.1918 15.3443 15.0825C15.3443 14.9732 15.3199 14.8694 15.2756 14.7765C15.1756 14.5638 14.9746 14.4089 14.7347 14.3719Z" fill="#0D4047"/>
<path d="M11.7002 0C5.08333 0 -0.299805 5.3832 -0.299805 12C-0.299805 18.6168 5.08333 24 11.7002 24C18.317 24 23.7002 18.6168 23.7002 12C23.7002 5.3832 18.317 0 11.7002 0ZM22.9257 12C22.9257 12.9534 22.8059 13.8792 22.5811 14.7635L18.2124 13.593C18.3375 13.0822 18.4042 12.5487 18.4042 11.9999C18.4042 11.4512 18.3375 10.9177 18.2124 10.407L22.5811 9.2364C22.8058 10.1209 22.9257 11.0466 22.9257 12ZM0.474709 12C0.474709 11.0466 0.594565 10.1208 0.819304 9.23647L5.18789 10.407C5.06293 10.9179 4.99613 11.4513 4.99613 12.0001C4.99613 12.5489 5.06293 13.0823 5.18789 13.5931L0.819304 14.7637C0.594565 13.8792 0.474709 12.9534 0.474709 12ZM17.0362 10.506C17.037 10.5086 17.0377 10.5113 17.0385 10.5139C17.0563 10.5782 17.0733 10.643 17.0889 10.7082C17.1883 11.123 17.2424 11.5552 17.2424 12.0001C17.2424 12.445 17.1883 12.8773 17.0888 13.2921C17.0733 13.3571 17.0564 13.4217 17.0386 13.4858C17.0377 13.4889 17.0369 13.492 17.036 13.4951C16.9633 13.754 16.8725 14.0053 16.7645 14.2474L16.7644 14.2476C16.683 14.4303 16.5921 14.6078 16.4921 14.7795C16.4919 14.7799 16.4916 14.7802 16.4914 14.7807C16.2243 15.239 15.8934 15.6558 15.5109 16.0188C14.8855 16.6121 14.1227 17.0614 13.2752 17.3131C13.1625 17.3467 13.0482 17.3762 12.9327 17.4026C12.9164 17.4063 12.9001 17.4103 12.8837 17.414C12.8346 17.4247 12.7853 17.4345 12.7357 17.444C12.7038 17.4501 12.6717 17.4557 12.6396 17.4613C12.5966 17.4686 12.5536 17.4763 12.5103 17.4827C12.4384 17.4933 12.3661 17.5026 12.2934 17.5103C12.2642 17.5135 12.2346 17.5158 12.2052 17.5185C12.1478 17.5237 12.0904 17.5282 12.0325 17.5316C12.0055 17.5333 11.9786 17.5349 11.9517 17.5361C11.8682 17.5399 11.7845 17.5425 11.7002 17.5425C11.6158 17.5425 11.5321 17.5399 11.4487 17.5361C11.4217 17.5349 11.3948 17.5333 11.368 17.5316C11.3102 17.5282 11.2525 17.5237 11.1952 17.5185C11.1658 17.5158 11.1362 17.5135 11.1069 17.5103C11.0342 17.5026 10.962 17.4933 10.8901 17.4827C10.8467 17.4763 10.8038 17.4687 10.7607 17.4612C10.7286 17.4557 10.6966 17.4501 10.6647 17.444C10.6151 17.4346 10.5655 17.4247 10.5164 17.4139C10.5004 17.4104 10.4847 17.4065 10.4688 17.4028C10.3528 17.3763 10.2379 17.3467 10.1248 17.313C9.27726 17.0613 8.51449 16.6118 7.88907 16.0183C7.69796 15.8369 7.51975 15.6422 7.35594 15.4356C7.35575 15.4353 7.35549 15.435 7.3553 15.4346C7.19175 15.2282 7.04259 15.0099 6.90931 14.7812C6.90879 14.7802 6.90828 14.7793 6.90776 14.7784C6.80823 14.6075 6.71762 14.4306 6.63649 14.2487C6.63623 14.2481 6.6359 14.2474 6.63565 14.2469C6.6086 14.1863 6.58266 14.1249 6.55774 14.0632C6.55761 14.0628 6.55748 14.0623 6.55729 14.0619C6.4832 13.8777 6.41878 13.6886 6.3645 13.4953C6.3636 13.492 6.36269 13.4889 6.36179 13.4858C6.34398 13.4217 6.32713 13.3572 6.31158 13.2921C6.21205 12.8773 6.15796 12.4451 6.15796 12.0001C6.15796 11.5552 6.21212 11.1229 6.31158 10.7081C6.32713 10.6431 6.34391 10.5786 6.36179 10.5145C6.36269 10.5114 6.3636 10.5082 6.3645 10.505C6.41872 10.3117 6.48307 10.1226 6.55716 9.9385C6.55736 9.93798 6.55755 9.93747 6.55774 9.93702C6.58259 9.87525 6.60854 9.81413 6.63552 9.75352C6.63584 9.75281 6.63616 9.7521 6.63649 9.75133C6.71749 9.56957 6.8081 9.39299 6.9075 9.22214C6.90815 9.22104 6.90873 9.21994 6.90937 9.21891C7.04252 8.99043 7.19155 8.77234 7.35491 8.566C7.3553 8.56548 7.35575 8.56496 7.35614 8.56445C7.51988 8.35791 7.69796 8.16325 7.88894 7.98201C8.51481 7.38809 9.27822 6.93848 10.1265 6.68677C10.2385 6.65353 10.3521 6.62423 10.4668 6.59796C10.4836 6.59415 10.5001 6.59002 10.5169 6.5864C10.5657 6.57569 10.615 6.56588 10.6643 6.55646C10.6965 6.55032 10.7288 6.54464 10.7612 6.53909C10.804 6.53167 10.8467 6.52412 10.8899 6.51773C10.9618 6.50714 11.0342 6.49785 11.107 6.49004C11.1362 6.48688 11.1657 6.48468 11.195 6.48197C11.2525 6.47675 11.31 6.47223 11.3679 6.46874C11.3948 6.46713 11.4216 6.46551 11.4486 6.46429C11.5321 6.46048 11.6158 6.4579 11.7001 6.4579C11.7845 6.4579 11.8682 6.46054 11.9517 6.46429C11.9786 6.46551 12.0055 6.46713 12.0323 6.46874C12.0902 6.47216 12.1479 6.47675 12.2052 6.48197C12.2346 6.48468 12.2641 6.48694 12.2933 6.49004C12.3661 6.49785 12.4384 6.50714 12.5103 6.51773C12.5535 6.52412 12.5962 6.53167 12.6391 6.53909C12.6714 6.54464 12.7038 6.55032 12.7359 6.55646C12.7854 6.56588 12.8345 6.57569 12.8834 6.5864C12.9001 6.59008 12.9167 6.59415 12.9333 6.59796C13.0481 6.62423 13.1617 6.65359 13.2736 6.68677C14.1218 6.93842 14.8849 7.38783 15.5107 7.98156C15.702 8.16312 15.8804 8.3581 16.0444 8.56503L16.0446 8.56509C16.2084 8.77182 16.3577 8.99049 16.4912 9.21949C16.4915 9.22007 16.4919 9.22065 16.4922 9.22117C16.592 9.39266 16.683 9.57003 16.7643 9.75255C16.7644 9.75268 16.7644 9.75281 16.7644 9.75294C16.7917 9.81387 16.8177 9.87538 16.8427 9.93747C16.9172 10.1222 16.9818 10.3119 17.0362 10.506ZM16.3333 7.15903C15.5655 6.42388 14.6237 5.8694 13.5767 5.56359L14.7473 1.19495C16.5711 1.70993 18.2074 2.67575 19.5289 3.96332L16.3333 7.15903ZM9.82368 5.56359C8.77666 5.86933 7.83485 6.42395 7.06705 7.15909L3.87141 3.96345C5.19292 2.67582 6.82927 1.71 8.65313 1.19495L9.82368 5.56359ZM7.06699 16.8408C7.83479 17.576 8.7766 18.1306 9.82361 18.4364L8.65306 22.8051C6.82921 22.29 5.19286 21.3242 3.87134 20.0365L7.06699 16.8408ZM13.5767 18.4364C14.6237 18.1307 15.5655 17.5761 16.3333 16.841L19.5289 20.0366C18.2074 21.3242 16.5711 22.2901 14.7472 22.8051L13.5767 18.4364Z" fill="#0D4047"/>
</svg>
