<svg width="24" height="24" viewBox="0 0 24 24" fill="none" xmlns="http://www.w3.org/2000/svg">
<g clip-path="url(#clip0_185_40)">
<g clip-path="url(#clip1_185_40)">
<path d="M10.9222 0.352905C14.4378 0.352905 17.4342 2.84688 18.1103 6.2464C21.5088 6.92278 24 9.92155 24 13.4379C24 17.488 20.7185 20.7712 16.6707 20.7712C15.5982 20.7712 14.5582 20.5405 13.6059 20.1012L13.5815 20.1426C12.2574 22.3025 9.90909 23.647 7.32935 23.647C3.28146 23.647 0 20.3638 0 16.3137C0 13.5621 1.52824 11.084 3.91034 9.82547C3.70062 9.13907 3.59281 8.42011 3.59281 7.68624C3.59281 3.63615 6.87427 0.352905 10.9222 0.352905ZM10.0636 19.4183L9.90745 19.5495C9.3769 19.9733 8.74948 20.2614 8.07588 20.3844L7.87246 20.4163L7.87218 22.5373C9.17655 22.4249 10.3941 21.9079 11.375 21.072L11.5561 20.9115L10.0636 19.4183ZM4.71057 19.5166L3.2152 21.0127C4.14656 21.8298 5.298 22.3538 6.53747 22.5108L6.78649 22.5373L6.78621 20.4163C6.08858 20.3247 5.43352 20.0573 4.87513 19.6447L4.71057 19.5166ZM3.22895 16.8569L1.1091 16.8568C1.20912 18.0185 1.62931 19.1125 2.31295 20.0336L2.46346 20.2283L3.96762 18.7245C3.61679 18.2357 3.37633 17.6764 3.26473 17.0816L3.22895 16.8569ZM13.5496 16.8568L11.4298 16.8566L11.3972 17.0642C11.309 17.5455 11.1365 18.004 10.8891 18.4214L10.7785 18.5977L12.2889 20.109C12.9588 19.2341 13.387 18.1984 13.5246 17.0944L13.5496 16.8568ZM14.6238 17.0342L14.5922 17.3055C14.507 17.9361 14.3406 18.5487 14.098 19.1315C14.6561 19.3844 15.2498 19.5539 15.8636 19.6331L16.1278 19.6615L16.1275 17.5405C15.6719 17.4806 15.2333 17.3457 14.8252 17.1418L14.6238 17.0342ZM19.405 16.5425C18.8432 17.0382 18.1582 17.3733 17.4172 17.5086L17.2138 17.5405L17.2135 19.6615C18.5179 19.549 19.7355 19.0321 20.7163 18.1961L20.8974 18.0357L19.405 16.5425ZM7.32935 13.2621C5.64493 13.2621 4.27943 14.6284 4.27943 16.3137C4.27943 17.999 5.64493 19.3652 7.32935 19.3652C9.01376 19.3652 10.3792 17.999 10.3792 16.3137C10.3792 14.6284 9.01376 13.2621 7.32935 13.2621ZM22.8909 13.981L20.7711 13.9808L20.7385 14.1884C20.6503 14.6697 20.4779 15.1282 20.2304 15.5456L20.1198 15.7219L21.6302 17.2332C22.3001 16.3583 22.7283 15.3226 22.8659 14.2186L22.8909 13.981ZM14.5024 16.711L14.5062 16.6663L14.5073 16.6327L14.5024 16.711ZM17.6699 10.5538L17.5693 10.7799C16.9449 12.1206 15.9247 13.2462 14.6503 14.0012L14.4228 14.1306L14.3416 14.1735C14.4929 14.6705 14.5912 15.1842 14.634 15.7082C15.1882 16.2077 15.9071 16.4894 16.6707 16.4894C18.3551 16.4894 19.7206 15.1232 19.7206 13.4379C19.7206 12.1749 18.9469 11.063 17.8083 10.6055L17.6699 10.5538ZM14.5114 16.1045L14.5137 16.2282L14.5132 16.1515L14.5114 16.1045ZM14.6385 15.7659L14.4953 15.7757L14.5631 15.8357L14.643 15.8306L14.6385 15.7659ZM14.4953 15.7757C14.4967 15.7941 14.4978 15.8117 14.4989 15.8292L14.4953 15.7757ZM12.1246 12.3128L10.6249 13.8132C11.0137 14.3254 11.2785 14.9209 11.396 15.557L11.4297 15.7705L13.5496 15.7706C13.446 14.568 12.9993 13.4382 12.2734 12.4982L12.1246 12.3128ZM2.46341 12.3991L2.31292 12.5938C1.67813 13.4491 1.27048 14.4536 1.1354 15.5227L1.1091 15.7706L3.2289 15.7708C3.30794 15.1677 3.51811 14.5958 3.84091 14.09L3.96721 13.9035L2.46341 12.3991ZM14.0936 13.8847L14.1212 13.9644H14.1219L14.1176 13.9507L14.0936 13.8847ZM14.0767 13.8374L14.0929 13.8833L14.0857 13.8602L14.0767 13.8374ZM13.6565 10.7909C13.3862 11.0294 13.0859 11.2318 12.7634 11.3925C13.2399 11.919 13.6383 12.5119 13.9449 13.1532C14.2922 12.9608 14.6204 12.7354 14.9249 12.4806L15.1489 12.284L13.6565 10.7909ZM6.78654 10.09L6.53749 10.1166C5.38064 10.2631 4.30047 10.7293 3.40436 11.4552L3.2152 11.6147L4.711 13.1112C5.24867 12.6697 5.88948 12.3703 6.57853 12.2438L6.78664 12.211L6.78654 10.09ZM7.87216 10.09L7.87198 12.211C8.52894 12.2972 9.14846 12.5393 9.6854 12.9124L9.86124 13.0415L11.3594 11.5423C10.4408 10.7646 9.31873 10.2669 8.11414 10.1157L7.87216 10.09ZM21.4659 9.43701L19.9662 10.9374C20.355 11.4496 20.6198 12.0451 20.7374 12.6812L20.7711 12.8947L22.8909 12.8947C22.7874 11.6922 22.3407 10.5624 21.6148 9.62244L21.4659 9.43701ZM17.1424 8.22935L15.0226 8.22918L14.99 8.43678C14.9018 8.91805 14.7293 9.37654 14.4819 9.79393L14.3713 9.97025L15.8817 11.4815C16.5516 10.6067 16.9798 9.57095 17.1174 8.46693L17.1424 8.22935ZM11.9572 10.6268L11.8663 10.7382L11.8673 10.739L11.8793 10.7343L11.9636 10.6321L11.9572 10.6268ZM10.9222 4.63469C9.23774 4.63469 7.87226 6.00091 7.87226 7.68624C7.87226 8.10006 7.95459 8.50183 8.11164 8.87347L8.1835 9.03086L8.33733 9.04917C9.64801 9.22958 10.8725 9.76059 11.8961 10.5775C13.1242 10.1654 13.972 9.00832 13.972 7.68624C13.972 6.00091 12.6066 4.63469 10.9222 4.63469ZM17.652 10.2084L17.6393 10.2416L17.6417 10.2381L17.652 10.2084ZM18.2457 7.39139C18.2496 7.48942 18.2515 7.58771 18.2515 7.68624C18.2515 8.17196 18.2043 8.65158 18.111 9.12193L18.0495 9.40301L18.0179 9.52427L18.2294 9.6038C18.5082 9.71746 18.7734 9.86128 19.0206 10.0324L19.2026 10.1657L20.7007 8.66645C19.9889 8.06394 19.1514 7.62691 18.2457 7.39139ZM4.0996 9.88958L4.0837 9.89761C4.09057 9.89413 4.09509 9.89185 4.0996 9.88958ZM4.04118 9.75737L4.01904 9.7692L4.08211 9.89361L4.04118 9.75737ZM4.33144 9.77784C4.32888 9.77902 4.3263 9.78019 4.32374 9.78137L4.33144 9.77784ZM4.60698 9.65807L4.55116 9.68125L4.62565 9.65079L4.60698 9.65807ZM4.68354 9.62679L4.63976 9.64514L4.68423 9.6275L4.68354 9.62679ZM6.82176 8.22943L4.70191 8.22937C4.73585 8.6238 4.80672 9.0113 4.91311 9.3881C5.57959 9.15548 6.27899 9.02003 6.99512 8.98786C6.93421 8.80372 6.88626 8.6149 6.85176 8.42271L6.82176 8.22943ZM7.91294 9.1475L7.91225 9.14819L7.9214 9.1489L7.92071 9.14819L7.91294 9.1475ZM7.80316 9.13966L7.85734 9.14326H7.8593L7.80316 9.13966ZM7.54601 9.12736L7.65193 9.13126C7.61676 9.12973 7.58142 9.12842 7.54601 9.12736ZM15.7174 3.68538L14.2177 5.18577C14.6065 5.69798 14.8713 6.29342 14.9889 6.92954L15.0226 7.14304L17.1424 7.1431C17.0389 5.94055 16.5921 4.81075 15.8662 3.87079L15.7174 3.68538ZM6.05625 3.77168C5.33528 4.66753 4.87368 5.74386 4.72821 6.89529L4.70191 7.14312L6.82173 7.1433C6.90077 6.54022 7.11094 5.96837 7.43374 5.46254L7.56002 5.27601L6.05625 3.77168ZM17.9875 6.36923L17.9873 6.37055L17.9936 6.40586L17.9875 6.36923ZM18.1289 6.34345L17.9894 6.36915L18.0911 6.3889L18.1358 6.3813L18.1289 6.34345ZM10.3793 1.46261L10.1303 1.48911C8.97345 1.63569 7.89331 2.10188 6.99719 2.82776L6.80801 2.98725L8.30383 4.48379C8.8415 4.04223 9.48229 3.74283 10.1713 3.61632L10.3795 3.58358L10.3793 1.46261ZM11.465 1.46261L11.4648 3.58358C12.1217 3.66978 12.7413 3.91183 13.2782 4.28491L13.4541 4.4141L14.9522 2.91483C14.0336 2.13716 12.9115 1.63943 11.7069 1.4882L11.465 1.46261Z" fill="#0D4047"/>
</g>
</g>
<defs>
<clipPath id="clip0_185_40">
<rect width="24" height="24" fill="white"/>
</clipPath>
<clipPath id="clip1_185_40">
<rect width="24" height="24" fill="white"/>
</clipPath>
</defs>
</svg>
