<svg width="24" height="24" viewBox="0 0 24 24" fill="none" xmlns="http://www.w3.org/2000/svg">
<g clip-path="url(#clip0_185_48)">
<path d="M20.5938 18.9277C20.0134 18.0585 19.1318 17.5778 18.3033 17.2654C17.8882 17.1092 17.4818 16.994 17.1241 16.8959C16.767 16.7989 16.4563 16.7169 16.2477 16.6383C15.8826 16.5026 15.497 16.3273 15.2279 16.1382C15.0936 16.0444 14.9899 15.9477 14.9298 15.8654C14.8691 15.7814 14.8527 15.7233 14.852 15.6723C14.852 15.3817 14.852 15.0334 14.852 14.595C15.4172 15.2033 16.5898 16.211 17.9234 15.8634C17.0665 15.0435 17.165 12.0793 17.1564 10.8052C17.3128 10.4989 17.4539 10.1129 17.6035 9.58958C17.6826 9.31278 17.719 9.07199 17.719 8.85734C17.7194 8.61045 17.6687 8.39581 17.5753 8.22181C17.5429 8.16069 17.5047 8.10697 17.4646 8.05827C18.2777 6.88766 17.816 0.149329 13.1778 0.0996418C8.56937 -0.496514 5.69551 1.50941 6.48184 8.09661C6.48854 8.10266 6.49497 8.11072 6.50148 8.11677C6.47612 8.15239 6.44692 8.18159 6.42522 8.22186C6.33189 8.39586 6.28079 8.6105 6.28112 8.85739C6.28131 9.07203 6.31787 9.31283 6.397 9.58963C6.54629 10.1103 6.6857 10.4972 6.84208 10.8029C6.8335 12.0756 6.93259 15.0435 6.07525 15.8634C7.41039 16.2114 8.584 15.2014 9.14847 14.5927C9.14847 15.0321 9.14847 15.3811 9.14847 15.6723C9.14847 15.7156 9.13131 15.7778 9.06433 15.8668C8.96607 15.9988 8.7625 16.159 8.52067 16.2947C8.27954 16.4321 8.00223 16.5507 7.75951 16.6363C7.47451 16.7371 7.01551 16.8425 6.50111 16.9896C5.72823 17.2134 4.81459 17.5351 4.07129 18.1726C3.70014 18.4914 3.37431 18.8918 3.14523 19.3892C2.91583 19.8863 2.78429 20.4772 2.78467 21.1685C2.78467 21.329 2.7917 21.4946 2.80633 21.6662C2.81673 21.7868 2.86239 21.8842 2.91615 21.9645C3.01843 22.1153 3.15414 22.2268 3.32411 22.3414C3.62172 22.5383 4.03417 22.731 4.56203 22.9198C6.14223 23.4834 8.75833 23.9994 12.0002 24C14.6341 24 16.8573 23.6581 18.4441 23.2288C19.2379 23.0135 19.8718 22.7781 20.3297 22.5426C20.5592 22.424 20.7448 22.3068 20.8917 22.1785C20.9654 22.1137 21.0299 22.0455 21.0843 21.9646C21.1377 21.8843 21.1837 21.7869 21.1942 21.6663C21.2085 21.4953 21.2155 21.3297 21.2155 21.1699C21.2169 20.2482 20.98 19.5055 20.5938 18.9277ZM5.7699 22.5447C5.76165 22.5426 5.75172 22.5403 5.74351 22.5379C4.98559 22.333 4.3892 22.108 3.99822 21.9061C3.8034 21.806 3.65978 21.7109 3.58037 21.6408C3.54643 21.6112 3.52731 21.5887 3.51789 21.5756C3.50682 21.4345 3.50045 21.2982 3.50045 21.1685C3.50162 20.3653 3.69793 19.7789 4.00145 19.3187C4.43542 18.6617 5.12064 18.2499 5.84476 17.9644C5.87603 18.1136 5.9049 18.2805 5.92843 18.4673C5.9822 18.8885 6.01426 19.3953 6.01426 19.9475C6.01426 20.7577 5.93922 21.6646 5.7699 22.5447ZM16.831 8.44222C16.8335 8.44391 16.8367 8.44489 16.8392 8.44625C16.8802 8.47278 16.9134 8.50334 16.944 8.55945C16.9742 8.61589 17.0031 8.70486 17.0038 8.85739C17.0038 8.98906 16.9804 9.16611 16.9155 9.39345C16.7181 10.0884 16.5411 10.4925 16.3788 10.7169C16.2976 10.8304 16.2232 10.9013 16.1405 10.959C16.0628 11.0128 15.9722 11.0557 15.8587 11.0977C16.0287 10.3508 16.3896 8.96825 16.831 8.44222ZM8.16231 11.1062C8.03786 11.0618 7.94279 11.0165 7.86001 10.9591C7.73757 10.8724 7.62676 10.7548 7.49706 10.5133C7.36909 10.2732 7.23339 9.91409 7.08512 9.39345C7.01997 9.16606 6.99681 8.98902 6.99681 8.85739C6.99681 8.80939 7.00065 8.76908 7.00567 8.7328C7.51154 9.48045 7.96483 10.5039 8.21893 11.1267L8.16231 11.1062ZM12.0002 20.8L8.30856 17.1905C8.59407 17.0723 8.89272 16.9231 9.15639 16.7401C9.33709 16.6138 9.5027 16.472 9.63418 16.2994C9.76422 16.1291 9.86397 15.9161 9.86397 15.6723C9.86397 15.2927 9.86397 14.8184 9.86397 14.1678V14.0304L9.77209 13.9283C9.30958 13.4134 8.69673 12.7325 8.43812 11.5717L8.6237 7.36503L9.49131 5.8468C9.49131 5.8468 12.4191 8.88327 15.3467 8.66623L15.6927 11.1583L15.6422 11.1764L15.6064 11.3813C15.3773 12.6637 14.7164 13.3849 14.2286 13.9284L14.1367 14.0305V14.1679C14.1367 14.8185 14.1367 15.2928 14.1367 15.6723C14.136 15.9084 14.2279 16.1204 14.3533 16.2897C14.5439 16.5449 14.8083 16.734 15.0962 16.8993C15.289 17.0088 15.4932 17.1008 15.6965 17.1861L12.0002 20.8ZM20.4823 21.5745L20.4515 21.6112C20.3988 21.6646 20.2923 21.7449 20.1427 21.8298C19.7582 22.0515 19.0987 22.3101 18.2303 22.5443C18.0609 21.6643 17.986 20.7574 17.9862 19.9475C17.986 19.3953 18.018 18.8884 18.0721 18.4672C18.0949 18.2848 18.1232 18.1216 18.1534 17.9748C18.6241 18.1606 19.083 18.399 19.461 18.7235C19.766 18.9848 20.0215 19.2982 20.2047 19.6932C20.3874 20.0882 20.4998 20.5679 20.4998 21.1698C20.4998 21.2984 20.4933 21.4341 20.4823 21.5745Z" fill="#0D4047"/>
<path d="M10.3645 16.5139V18.5471L12.0119 17.8109L13.6594 18.5471V16.5139L12.0119 17.2499L10.3645 16.5139Z" fill="#0D4047"/>
</g>
<defs>
<clipPath id="clip0_185_48">
<rect width="24" height="24" fill="white"/>
</clipPath>
</defs>
</svg>
