<svg width="24" height="24" viewBox="0 0 24 24" fill="none" xmlns="http://www.w3.org/2000/svg">
<path d="M22.666 5.21724L13.8552 0.463245C13.2914 0.159803 12.6513 0 11.9996 0C11.3479 0 10.7077 0.159803 10.1439 0.463245L1.33371 5.21724C1.29901 5.23615 1.27024 5.26315 1.25024 5.29556C1.23025 5.32798 1.21973 5.36469 1.21973 5.40205C1.21973 5.4394 1.23025 5.47611 1.25024 5.50853C1.27024 5.54094 1.29901 5.56795 1.33371 5.58685L11.8845 11.3495C11.92 11.3689 11.9604 11.3791 12.0016 11.3791C12.0428 11.3791 12.0832 11.3689 12.1187 11.3495L22.6672 5.58685C22.7018 5.56785 22.7305 5.54077 22.7504 5.5083C22.7703 5.47583 22.7807 5.4391 22.7806 5.40174C22.7805 5.36438 22.7698 5.3277 22.7497 5.29534C22.7296 5.26298 22.7008 5.23605 22.666 5.21724ZM11.9999 6.42945C11.2354 6.42945 10.6152 6.04591 10.6152 5.57239C10.6152 5.09886 11.2354 4.71533 11.9999 4.71533C12.7643 4.71533 13.3845 5.09886 13.3845 5.57239C13.3845 6.04591 12.7643 6.42945 11.9999 6.42945Z" fill="#0D4047"/>
<path d="M10.9615 12.7936L0.346154 7.04433C0.31109 7.02553 0.271317 7.01563 0.230828 7.01563C0.19034 7.01562 0.150561 7.0255 0.115487 7.04428C0.0804126 7.06306 0.0512769 7.09007 0.0310058 7.12261C0.0107346 7.15516 4.15047e-05 7.19208 0 7.22967V16.5459C0.000870983 16.9948 0.12829 17.4356 0.369584 17.8246C0.610879 18.2135 0.957641 18.5371 1.37538 18.763L10.7308 23.9712C10.7658 23.99 10.8056 23.9999 10.8461 23.9999C10.8866 24 10.9264 23.9901 10.9614 23.9713C10.9965 23.9525 11.0256 23.9255 11.0459 23.893C11.0662 23.8604 11.0769 23.8235 11.0769 23.7859V12.9789C11.0769 12.9414 11.0662 12.9044 11.0459 12.8719C11.0257 12.8394 10.9966 12.8124 10.9615 12.7936ZM2.76923 17.9997C2.25923 17.9997 1.84615 17.4238 1.84615 16.7141C1.84615 16.0043 2.25923 15.4285 2.76923 15.4285C3.27923 15.4285 3.69231 16.0043 3.69231 16.7141C3.69231 17.4238 3.27923 17.9997 2.76923 17.9997ZM8.30769 16.2856C7.79769 16.2856 7.38461 15.7097 7.38461 15C7.38461 14.2902 7.79769 13.7144 8.30769 13.7144C8.81769 13.7144 9.23077 14.2902 9.23077 15C9.23077 15.7097 8.81769 16.2856 8.30769 16.2856Z" fill="#0D4047"/>
<path d="M23.6541 7.04604L13.0387 12.8339C13.0038 12.8526 12.9747 12.8795 12.9545 12.912C12.9342 12.9444 12.9235 12.9812 12.9233 13.0187V23.7849C12.9234 23.8225 12.9341 23.8594 12.9543 23.892C12.9746 23.9245 13.0038 23.9515 13.0388 23.9703C13.0739 23.9891 13.1137 23.999 13.1542 23.999C13.1947 23.999 13.2344 23.9891 13.2695 23.9703L22.6243 18.762C23.042 18.5363 23.3888 18.2129 23.6301 17.8242C23.8715 17.4354 23.9991 16.9947 24.0003 16.546V7.23299C24.0005 7.19526 23.9901 7.15814 23.9699 7.12537C23.9498 7.0926 23.9207 7.06536 23.8855 7.04639C23.8504 7.02742 23.8105 7.01739 23.7699 7.01733C23.7292 7.01727 23.6893 7.02718 23.6541 7.04604ZM15.6926 20.9995C15.1826 20.9995 14.7695 20.4237 14.7695 19.7139C14.7695 19.0042 15.1826 18.4283 15.6926 18.4283C16.2026 18.4283 16.6156 19.0042 16.6156 19.7139C16.6156 20.4237 16.2026 20.9995 15.6926 20.9995ZM15.6926 16.2857C15.1826 16.2857 14.7695 15.7098 14.7695 15.0001C14.7695 14.2903 15.1826 13.7145 15.6926 13.7145C16.2026 13.7145 16.6156 14.2903 16.6156 15.0001C16.6156 15.7098 16.2026 16.2857 15.6926 16.2857ZM21.231 17.9998C20.721 17.9998 20.308 17.424 20.308 16.7142C20.308 16.0044 20.721 15.4286 21.231 15.4286C21.741 15.4286 22.1541 16.0044 22.1541 16.7142C22.1541 17.424 21.741 17.9998 21.231 17.9998ZM21.231 13.286C20.721 13.286 20.308 12.7101 20.308 12.0004C20.308 11.2906 20.721 10.7148 21.231 10.7148C21.741 10.7148 22.1541 11.2906 22.1541 12.0004C22.1541 12.7101 21.741 13.286 21.231 13.286Z" fill="#0D4047"/>
</svg>
