<svg width="24" height="24" viewBox="0 0 24 24" fill="none" xmlns="http://www.w3.org/2000/svg">
<g clip-path="url(#clip0_185_54)">
<path d="M13.7876 0C14.8785 0 15.7627 0.897528 15.7627 2.0047L15.7618 5.71323L22.2604 7.45461C23.3141 7.73693 23.9359 8.83275 23.6493 9.90219L20.2768 22.4888C19.9902 23.5582 18.9038 24.1963 17.8501 23.9139L9.67107 21.7221C8.7305 23.0366 7.20464 23.8912 5.4822 23.8912C2.62434 23.8912 0.307617 21.5385 0.307617 18.6363C0.307617 16.6791 1.36127 14.9718 2.924 14.0674L2.92462 2.0047C2.92462 0.897528 3.8089 0 4.89971 0H13.7876ZM7.39279 20.9064L7.28608 20.9949C6.92771 21.278 6.5091 21.4739 6.06036 21.5648L5.90971 21.5912L5.90969 23.0021C6.77451 22.9158 7.58203 22.5684 8.24031 22.0129L8.36997 21.8991L7.39279 20.9064ZM3.65375 20.9752L2.67424 21.9702C3.30045 22.5149 4.06606 22.8676 4.88963 22.9824L5.0551 23.0022L5.05488 21.5912C4.59074 21.5225 4.15421 21.3426 3.77717 21.0696L3.65375 20.9752ZM12.2026 6.83504L9.81196 15.7576C10.3461 16.5845 10.6568 17.5735 10.6568 18.6363C10.6568 19.4168 10.4892 20.1575 10.1886 20.8235L18.1096 22.9458C18.6364 23.0869 19.1796 22.7679 19.3229 22.2332L22.6954 9.6466C22.8387 9.11188 22.5278 8.56396 22.001 8.4228L13.4159 6.12243C12.8891 5.98127 12.3459 6.30032 12.2026 6.83504ZM17.1976 20.626L18.1515 20.8816C18.4149 20.9521 18.5703 21.2261 18.4987 21.4935C18.4271 21.7608 18.1555 21.9203 17.8921 21.8498L16.9381 21.5942C16.6747 21.5236 16.5193 21.2496 16.5909 20.9823C16.6626 20.7149 16.9342 20.5554 17.1976 20.626ZM2.57243 19.0703L1.18324 19.0704C1.25874 19.8508 1.53728 20.5862 1.98422 21.2111L2.08256 21.3433L3.06868 20.3427C2.838 20.0069 2.67752 19.6265 2.59831 19.2227L2.57243 19.0703ZM8.392 19.0699L8.3651 19.2277C8.30311 19.541 8.19214 19.8402 8.03717 20.1157L7.95604 20.2513L8.94633 21.2578C9.38003 20.6678 9.66142 19.9768 9.76132 19.2409L9.78114 19.0703L8.392 19.0699ZM5.4822 16.518C4.33024 16.518 3.39635 17.4664 3.39635 18.6363C3.39635 19.8063 4.33024 20.7547 5.4822 20.7547C6.63416 20.7547 7.56802 19.8063 7.56802 18.6363C7.56802 17.4664 6.63416 16.518 5.4822 16.518ZM2.08288 15.9289L1.98449 16.0611C1.57177 16.6381 1.30261 17.3091 1.20425 18.023L1.18324 18.2023L2.5724 18.2026C2.63107 17.7934 2.77236 17.4049 2.9852 17.0583L3.06836 16.9304L2.08288 15.9289ZM8.83288 15.8672L7.85002 16.8652C8.10335 17.2139 8.27927 17.6142 8.36433 18.0411L8.39194 18.2024L9.78114 18.2023C9.70319 17.3965 9.4088 16.639 8.93673 16.0018L8.83288 15.8672ZM15.3697 11.8345C15.754 11.9375 16.0859 12.1785 16.3049 12.5107L16.4032 12.4655C16.7346 12.3259 17.1033 12.299 17.4527 12.3926C17.8724 12.5051 18.2292 12.7819 18.4452 13.1624C18.6611 13.543 18.7184 13.9961 18.6044 14.4218C18.4909 14.8452 18.2173 15.2072 17.8483 15.4258L15.5016 16.8958C15.3857 16.9685 15.2453 16.9897 15.1142 16.9546C14.983 16.9194 14.8721 16.8309 14.8081 16.7101L13.5134 14.2688C13.3004 13.8896 13.2445 13.4393 13.3579 13.016C13.472 12.5902 13.7481 12.2264 14.1253 12.0049C14.5025 11.7833 14.9501 11.7221 15.3697 11.8345ZM5.05512 14.2704L4.88965 14.2902C4.12098 14.3973 3.40278 14.7118 2.80131 15.196L2.67424 15.3024L3.65405 16.2977C4.01668 16.0043 4.44327 15.8016 4.90122 15.7084L5.05499 15.6814L5.05512 14.2704ZM5.90965 14.2705L5.90931 15.6814C6.34968 15.7465 6.76539 15.9118 7.12924 16.1621L7.24857 16.2487L8.23062 15.2516C7.61685 14.7368 6.87583 14.403 6.08081 14.2911L5.90965 14.2705ZM14.6164 12.8703C14.4666 12.9583 14.3572 13.1025 14.3119 13.2716C14.2731 13.4166 14.2841 13.5693 14.344 13.7086L14.378 13.777L15.4328 15.7655L17.3397 14.5712L17.4075 14.5265C17.5256 14.4377 17.6116 14.311 17.6504 14.1662C17.6957 13.9973 17.673 13.8175 17.5874 13.6664C17.5016 13.5153 17.3599 13.4053 17.1933 13.3607C17.0508 13.3225 16.8998 13.3349 16.7653 13.3946L16.6995 13.4284L16.3681 13.6233C16.1493 13.7514 15.8753 13.6923 15.7279 13.4946L15.6938 13.4424L15.504 13.108C15.4185 12.9571 15.2768 12.8471 15.1103 12.8025C14.9438 12.7579 14.7663 12.7823 14.6164 12.8703ZM11.812 1.00184L11.8125 1.38931C11.8125 1.72918 11.537 2.0047 11.1972 2.0047H7.4902C7.15033 2.0047 6.87481 1.72918 6.87481 1.38931L6.87477 1.00184L4.89971 1.00235C4.35431 1.00235 3.91217 1.45111 3.91217 2.0047L3.91141 13.6279C4.40681 13.4678 4.93457 13.3814 5.4822 13.3814C6.86069 13.3814 8.11328 13.9288 9.0407 14.8212L11.2487 6.57944C11.5352 5.51 12.6217 4.87192 13.6753 5.15424L14.7741 5.44862L14.7752 2.0047C14.7752 1.45111 14.333 1.00235 13.7876 1.00235L11.812 1.00184ZM17.0844 12.84L17.1549 12.845L17.1007 12.8405L17.0844 12.84ZM17.0607 12.8385L16.9665 12.8401L17.0844 12.84L17.0607 12.8385ZM13.6334 7.21843L14.5873 7.47403C14.8507 7.54461 15.0062 7.81856 14.9346 8.08592C14.8629 8.35328 14.5913 8.5128 14.3279 8.44221L13.374 8.18662C13.1106 8.11604 12.9551 7.84209 13.0268 7.57473C13.0984 7.30737 13.37 7.14785 13.6334 7.21843Z" fill="#0D4047"/>
</g>
<defs>
<clipPath id="clip0_185_54">
<rect width="24" height="24" fill="white"/>
</clipPath>
</defs>
</svg>
