<svg width="24" height="24" viewBox="0 0 24 24" fill="none" xmlns="http://www.w3.org/2000/svg">
<g clip-path="url(#clip0_185_25)">
<path d="M23.1958 6.00024C23.1884 6.00024 23.181 6.00137 23.1736 6.0033H0.826327C0.818928 6.00137 0.811583 6.00024 0.80413 6.00024C0.36003 6.00024 0 9.46935 0 13.7488C0 18.0282 0.36003 21.4973 0.80413 21.4973H23.1959C23.64 21.4973 24 18.0282 24 13.7488C23.9999 9.46935 23.64 6.00024 23.1958 6.00024ZM21.2649 10.8602V16.7293H16.0748V10.8602H21.2649ZM14.6151 10.8602V16.7293H9.42502V10.8602H14.6151ZM2.77521 10.8602H7.96533V16.7293H2.77521V10.8602Z" fill="#0D4047"/>
<path d="M10.8794 13.0071C10.8794 13.0071 10.9549 12.6923 11.2948 12.7678C11.6348 12.8434 12.0377 12.7804 12.0377 12.7804C10.4512 14.5558 10.8037 15.7772 10.8037 15.7772H12.2265C12.0565 14.951 12.2332 14.0853 12.6622 13.3633C12.734 13.2423 13.4857 12.0376 13.4857 12.0376L13.045 11.7102C13.045 11.7102 12.831 11.8865 12.428 11.8865C12.025 11.8865 11.8869 11.7102 11.4714 11.7102C11.1523 11.7102 10.9044 11.8235 10.9044 11.8235V11.7102H10.5142V13.0071H10.8794Z" fill="#0D4047"/>
<path d="M5.95483 11.8613C5.55191 11.8613 5.41374 11.6851 4.99822 11.6851C4.67915 11.6851 4.43129 11.7983 4.43129 11.7983V11.6851H4.04102V12.9819H4.40619C4.40619 12.9819 4.48168 12.6671 4.82166 12.7427C5.16164 12.8182 5.56456 12.7553 5.56456 12.7553C3.97802 14.5306 4.33059 15.752 4.33059 15.752H5.7534C5.58328 14.9258 5.7601 14.0602 6.18903 13.3382C6.26093 13.2172 7.01251 12.0124 7.01251 12.0124L6.57179 11.6851C6.57179 11.6851 6.35776 11.8613 5.95483 11.8613Z" fill="#0D4047"/>
<path d="M13.9416 5.38433L13.4438 2.96036C13.3592 2.54832 12.9672 2.25 12.5106 2.25H12.0287H11.5667C11.11 2.25 10.7181 2.54832 10.6335 2.96036L10.1357 5.38433H10.7483H13.9416Z" fill="#0D4047"/>
<path d="M17.6602 13.0071C17.6602 13.0071 17.7357 12.6923 18.0757 12.7678C18.4157 12.8434 18.8185 12.7804 18.8185 12.7804C17.232 14.5558 17.5846 15.7772 17.5846 15.7772H19.0074C18.8373 14.951 19.0141 14.0853 19.443 13.3633C19.5149 13.2423 20.2665 12.0376 20.2665 12.0376L19.8257 11.7102C19.8257 11.7102 19.6117 11.8865 19.2088 11.8865C18.8059 11.8865 18.6677 11.7102 18.2522 11.7102C17.9331 11.7102 17.6852 11.8235 17.6852 11.8235V11.7102H17.2949V13.0071H17.6602Z" fill="#0D4047"/>
</g>
<defs>
<clipPath id="clip0_185_25">
<rect width="24" height="24" fill="white"/>
</clipPath>
</defs>
</svg>
