<svg width="33" height="33" viewBox="0 0 33 33" fill="none" xmlns="http://www.w3.org/2000/svg">
<g clip-path="url(#clip0_184_458)">
<path d="M15.4922 16.1376L2.37207 30.0638C2.37256 30.0667 2.37355 30.0691 2.37401 30.072C2.7764 31.5843 4.15762 32.6977 5.79684 32.6977C6.45213 32.6977 7.06735 32.5206 7.59496 32.2096L7.63686 32.185L22.406 23.6626L15.4928 16.1375" fill="#EB3131"/>
<path d="M28.7664 13.7662L28.7538 13.7576L22.3775 10.0612L15.1938 16.4536L22.4025 23.6614L28.7451 20.0017C29.8571 19.4014 30.612 18.2291 30.612 16.8772C30.612 15.5351 29.8673 14.3686 28.7663 13.7663" fill="#F6B60B"/>
<path d="M2.37033 3.63449C2.29146 3.92535 2.25 4.23 2.25 4.54637V29.1552C2.25 29.471 2.29097 29.7767 2.37083 30.0665L15.9438 16.4962L2.37083 3.63484" fill="#5778C5"/>
<path d="M15.5902 16.8493L22.3816 10.0599L7.6291 1.50653C7.09288 1.18536 6.46702 1 5.79734 1C4.15811 1 2.77502 2.1155 2.37256 3.62949C2.37207 3.63097 2.37207 3.63198 2.37207 3.63328L15.5901 16.8496" fill="#3BAD49"/>
</g>
<defs>
<clipPath id="clip0_184_458">
<rect width="32" height="32" fill="white" transform="translate(0.5 0.5)"/>
</clipPath>
</defs>
</svg>
