<svg width="15" height="15" viewBox="0 0 15 15" fill="none" xmlns="http://www.w3.org/2000/svg">
<g clip-path="url(#clip0_182_103)">
<rect x="15" y="15" width="15" height="15" rx="3.5" transform="rotate(180 15 15)" fill="#F0F3F8"/>
<path d="M3.1356 5.13661C3.29996 4.97102 3.55716 4.95597 3.7384 5.09145L3.79033 5.13661L7.5 8.87412L11.2097 5.13661C11.374 4.97102 11.6312 4.95597 11.8125 5.09145L11.8644 5.13661C12.0288 5.3022 12.0437 5.56132 11.9092 5.74391L11.8644 5.79623L7.82736 9.86339C7.663 10.029 7.4058 10.044 7.22456 9.90855L7.17264 9.86339L3.1356 5.79623C2.9548 5.61408 2.9548 5.31876 3.1356 5.13661Z" fill="#0D4047"/>
</g>
<defs>
<clipPath id="clip0_182_103">
<rect x="15" y="15" width="15" height="15" rx="3.5" transform="rotate(180 15 15)" fill="white"/>
</clipPath>
</defs>
</svg>
